<svg xmlns="http://www.w3.org/2000/svg" xmlns:xlink="http://www.w3.org/1999/xlink" width="465" zoomAndPan="magnify" viewBox="0 0 348.75 126.749998" height="169" preserveAspectRatio="xMidYMid meet" version="1.0"><defs><clipPath id="dfe908bec5"><path d="M 0.730469 17.410156 L 97.289062 17.410156 L 97.289062 113.96875 L 0.730469 113.96875 Z M 0.730469 17.410156 " clip-rule="nonzero"/></clipPath></defs><path fill="#ffffff" d="M 48.945312 69.894531 C 48.128906 69.835938 47.332031 69.929688 46.550781 70.179688 C 45.769531 70.429688 45.066406 70.816406 44.433594 71.34375 C 44.191406 71.566406 43.972656 71.8125 43.777344 72.082031 C 43.585938 72.351562 43.421875 72.640625 43.285156 72.945312 C 43.152344 73.246094 43.050781 73.5625 42.984375 73.886719 C 42.914062 74.210938 42.882812 74.539062 42.882812 74.871094 C 42.882812 75.203125 42.914062 75.53125 42.984375 75.855469 C 43.050781 76.183594 43.152344 76.496094 43.285156 76.800781 C 43.421875 77.105469 43.585938 77.390625 43.777344 77.660156 C 43.972656 77.929688 44.191406 78.179688 44.433594 78.402344 C 45.066406 78.921875 45.773438 79.308594 46.550781 79.558594 C 47.332031 79.808594 48.128906 79.90625 48.945312 79.847656 C 49.753906 79.898438 50.539062 79.800781 51.304688 79.550781 C 52.074219 79.300781 52.769531 78.917969 53.390625 78.402344 C 53.632812 78.179688 53.851562 77.929688 54.046875 77.660156 C 54.238281 77.390625 54.402344 77.105469 54.539062 76.800781 C 54.671875 76.496094 54.773438 76.183594 54.839844 75.855469 C 54.910156 75.53125 54.941406 75.203125 54.941406 74.871094 C 54.941406 74.539062 54.910156 74.210938 54.839844 73.886719 C 54.773438 73.5625 54.671875 73.246094 54.539062 72.945312 C 54.402344 72.640625 54.238281 72.351562 54.046875 72.082031 C 53.851562 71.8125 53.632812 71.566406 53.390625 71.34375 C 52.769531 70.828125 52.074219 70.445312 51.304688 70.195312 C 50.539062 69.945312 49.753906 69.84375 48.945312 69.894531 Z M 48.945312 69.894531 " fill-opacity="1" fill-rule="nonzero"/><path fill="#ffffff" d="M 48.945312 59.21875 C 49.574219 59.277344 50.1875 59.207031 50.785156 59.007812 C 51.386719 58.8125 51.921875 58.503906 52.390625 58.082031 C 52.566406 57.921875 52.722656 57.742188 52.859375 57.550781 C 52.996094 57.355469 53.113281 57.152344 53.210938 56.933594 C 53.304688 56.714844 53.378906 56.488281 53.425781 56.257812 C 53.476562 56.023438 53.5 55.789062 53.5 55.550781 C 53.5 55.3125 53.476562 55.078125 53.425781 54.84375 C 53.378906 54.613281 53.304688 54.386719 53.210938 54.167969 C 53.113281 53.953125 52.996094 53.746094 52.859375 53.550781 C 52.722656 53.359375 52.566406 53.179688 52.390625 53.019531 C 51.917969 52.601562 51.382812 52.289062 50.785156 52.085938 C 50.1875 51.882812 49.574219 51.804688 48.945312 51.847656 C 47.644531 51.742188 46.5 52.109375 45.503906 52.953125 C 45.324219 53.113281 45.164062 53.289062 45.027344 53.484375 C 44.886719 53.679688 44.765625 53.886719 44.667969 54.105469 C 44.574219 54.324219 44.5 54.554688 44.449219 54.789062 C 44.398438 55.023438 44.375 55.261719 44.375 55.5 C 44.375 55.738281 44.398438 55.976562 44.449219 56.210938 C 44.5 56.445312 44.574219 56.671875 44.667969 56.894531 C 44.765625 57.113281 44.886719 57.320312 45.027344 57.515625 C 45.164062 57.707031 45.324219 57.886719 45.503906 58.046875 C 45.976562 58.464844 46.511719 58.777344 47.105469 58.980469 C 47.703125 59.183594 48.316406 59.261719 48.945312 59.21875 Z M 48.945312 59.21875 " fill-opacity="1" fill-rule="nonzero"/><g clip-path="url(#dfe908bec5)"><path fill="#ffffff" d="M 87.792969 17.410156 L 10.097656 17.410156 C 9.484375 17.410156 8.875 17.46875 8.269531 17.589844 C 7.667969 17.710938 7.082031 17.886719 6.515625 18.121094 C 5.945312 18.359375 5.40625 18.648438 4.894531 18.988281 C 4.382812 19.328125 3.910156 19.71875 3.476562 20.152344 C 3.039062 20.589844 2.652344 21.0625 2.308594 21.574219 C 1.96875 22.085938 1.679688 22.625 1.445312 23.191406 C 1.207031 23.761719 1.03125 24.347656 0.910156 24.949219 C 0.789062 25.554688 0.730469 26.160156 0.730469 26.777344 L 0.730469 104.472656 C 0.730469 105.089844 0.789062 105.695312 0.910156 106.300781 C 1.03125 106.902344 1.207031 107.488281 1.445312 108.058594 C 1.679688 108.625 1.96875 109.164062 2.308594 109.675781 C 2.652344 110.1875 3.039062 110.660156 3.476562 111.097656 C 3.910156 111.53125 4.382812 111.921875 4.894531 112.261719 C 5.40625 112.601562 5.945312 112.890625 6.515625 113.128906 C 7.082031 113.363281 7.667969 113.539062 8.269531 113.660156 C 8.875 113.78125 9.484375 113.839844 10.097656 113.839844 L 87.792969 113.839844 C 88.410156 113.839844 89.019531 113.78125 89.621094 113.660156 C 90.226562 113.539062 90.8125 113.363281 91.378906 113.128906 C 91.949219 112.890625 92.488281 112.601562 93 112.261719 C 93.511719 111.921875 93.984375 111.53125 94.417969 111.097656 C 94.851562 110.660156 95.242188 110.1875 95.582031 109.675781 C 95.925781 109.164062 96.214844 108.625 96.449219 108.058594 C 96.683594 107.488281 96.863281 106.902344 96.980469 106.300781 C 97.101562 105.695312 97.160156 105.089844 97.160156 104.472656 L 97.160156 26.777344 C 97.160156 26.160156 97.101562 25.554688 96.980469 24.949219 C 96.863281 24.347656 96.683594 23.761719 96.449219 23.191406 C 96.214844 22.625 95.925781 22.085938 95.582031 21.574219 C 95.242188 21.0625 94.851562 20.589844 94.417969 20.152344 C 93.984375 19.71875 93.511719 19.328125 93 18.988281 C 92.488281 18.648438 91.949219 18.359375 91.378906 18.121094 C 90.8125 17.886719 90.226562 17.710938 89.621094 17.589844 C 89.019531 17.46875 88.410156 17.410156 87.792969 17.410156 Z M 63.203125 87.289062 C 61.171875 88.863281 58.929688 90.042969 56.476562 90.816406 C 54.027344 91.59375 51.515625 91.921875 48.945312 91.800781 C 46.375 91.917969 43.859375 91.59375 41.40625 90.824219 C 38.949219 90.054688 36.699219 88.886719 34.652344 87.320312 C 33.78125 86.65625 32.996094 85.898438 32.296875 85.046875 C 31.601562 84.199219 31.011719 83.28125 30.527344 82.296875 C 30.042969 81.308594 29.679688 80.28125 29.433594 79.210938 C 29.1875 78.140625 29.066406 77.054688 29.074219 75.957031 C 29.011719 74.773438 29.109375 73.601562 29.371094 72.445312 C 29.628906 71.285156 30.039062 70.1875 30.601562 69.140625 C 31.164062 68.097656 31.855469 67.148438 32.679688 66.292969 C 33.5 65.4375 34.421875 64.710938 35.445312 64.109375 C 34.730469 63.558594 34.089844 62.925781 33.523438 62.21875 C 32.957031 61.511719 32.484375 60.746094 32.105469 59.925781 C 31.722656 59.105469 31.445312 58.25 31.273438 57.363281 C 31.097656 56.472656 31.03125 55.578125 31.074219 54.671875 C 31.066406 53.699219 31.175781 52.738281 31.398438 51.789062 C 31.621094 50.839844 31.953125 49.933594 32.390625 49.0625 C 32.824219 48.191406 33.359375 47.382812 33.984375 46.636719 C 34.613281 45.890625 35.316406 45.230469 36.101562 44.652344 C 37.941406 43.25 39.964844 42.203125 42.171875 41.503906 C 44.375 40.804688 46.632812 40.5 48.945312 40.585938 C 51.25 40.480469 53.503906 40.765625 55.710938 41.4375 C 57.914062 42.113281 59.941406 43.136719 61.792969 44.511719 C 62.578125 45.089844 63.285156 45.753906 63.914062 46.496094 C 64.546875 47.242188 65.078125 48.050781 65.519531 48.921875 C 65.960938 49.789062 66.292969 50.699219 66.519531 51.648438 C 66.742188 52.597656 66.855469 53.558594 66.855469 54.535156 C 66.894531 55.441406 66.824219 56.339844 66.644531 57.226562 C 66.46875 58.117188 66.1875 58.972656 65.804688 59.792969 C 65.417969 60.613281 64.945312 61.378906 64.375 62.085938 C 63.808594 62.789062 63.164062 63.421875 62.445312 63.972656 C 63.476562 64.582031 64.402344 65.320312 65.230469 66.1875 C 66.058594 67.054688 66.75 68.015625 67.3125 69.070312 C 67.875 70.128906 68.285156 71.242188 68.539062 72.410156 C 68.792969 73.578125 68.886719 74.761719 68.816406 75.957031 C 68.816406 77.054688 68.691406 78.136719 68.4375 79.203125 C 68.1875 80.269531 67.820312 81.292969 67.332031 82.277344 C 66.847656 83.257812 66.253906 84.171875 65.558594 85.019531 C 64.859375 85.867188 64.074219 86.621094 63.203125 87.289062 Z M 63.203125 87.289062 " fill-opacity="1" fill-rule="nonzero"/></g><path fill="#ffffff" d="M 347.4375 34.511719 C 347.476562 32.160156 347.117188 29.757812 347.25 27.417969 L 347.25 27.503906 C 347.445312 26.46875 347.125 25.292969 346.066406 24.914062 L 335.199219 20.355469 C 327.710938 16.363281 319.007812 18.289062 310.945312 18.558594 C 307.324219 18.738281 303.5 18.976562 299.875 19.1875 C 295.253906 19.03125 287.582031 18.453125 287.890625 25.011719 C 272.640625 16.9375 256.976562 15.683594 239.304688 21.199219 C 232.933594 23 226.589844 22.96875 226.953125 28.230469 C 205.5625 16.460938 185.269531 14.160156 165.789062 32.355469 C 165.40625 29.308594 165.917969 26.027344 164.667969 23.144531 C 164.382812 22.476562 163.914062 21.992188 163.253906 21.691406 C 161.933594 21.328125 149.09375 15.234375 147.941406 15.839844 C 142.6875 17.4375 133.648438 17.574219 131.046875 23.042969 L 119.390625 18.121094 C 117.726562 17.492188 115.597656 17.867188 113.871094 18.074219 C 110.175781 18.546875 106.070312 17.722656 102.722656 19.78125 C 96.566406 26.375 98.839844 41.578125 96.824219 50.5 C 95.675781 62.8125 95.167969 75.203125 94.847656 87.539062 C 94.542969 94.957031 91.578125 109.140625 98.226562 112.210938 C 108.625 116.867188 115.402344 120.578125 127.15625 116.867188 C 133.753906 115.484375 134.453125 116.835938 133.421875 109.53125 C 145.253906 114.550781 146.460938 116.503906 159.492188 113.722656 C 164.253906 113.722656 166.894531 113.753906 167.335938 108.179688 C 189.535156 119.046875 203.277344 122.78125 225.535156 111.585938 C 228.359375 113.203125 239.84375 118.574219 243.15625 118.449219 C 250.125 117.414062 257.125 114.269531 264.109375 112.988281 C 265.007812 112.863281 265.8125 112.515625 266.523438 111.953125 C 267.113281 111.335938 267.429688 110.605469 267.472656 109.753906 C 267.949219 104.632812 267.25 99.503906 266.679688 94.421875 C 266.53125 91.359375 265.644531 87.964844 266.679688 85.007812 C 271.589844 82.144531 277.207031 80.351562 282.304688 77.71875 C 283.371094 86.128906 277.824219 107.550781 283.738281 112.550781 C 285.605469 112.945312 297.535156 118.976562 299.257812 118.484375 C 312.148438 118.285156 324.957031 116.265625 337.910156 116.199219 C 342.769531 116.023438 342.597656 112.644531 342.527344 108.765625 C 342.496094 106.617188 342.199219 104.433594 342.34375 102.28125 C 342.414062 99.601562 343.148438 96.632812 341.539062 94.261719 C 339.625 91.621094 327.570312 87.789062 324.671875 86.351562 C 323.09375 85.164062 317.613281 87.351562 318.195312 84.707031 C 318.066406 83.28125 319.699219 83.082031 320.78125 82.757812 C 333.085938 79.847656 335.875 78.699219 336.1875 65.21875 C 336.058594 63.421875 335.214844 61.597656 333.601562 60.671875 C 333.488281 60.617188 333.292969 60.511719 333.199219 60.472656 L 322.242188 55.878906 C 322.28125 55.386719 322.3125 54.742188 322.375 54.25 C 322.492188 52.75 322.675781 51.238281 322.835938 49.753906 C 325.941406 49.605469 328.992188 49.355469 332.148438 49.164062 C 335.207031 48.960938 338.511719 48.8125 341.511719 48.195312 C 344.191406 47.792969 346.597656 46.433594 346.878906 43.492188 C 347.4375 40.554688 347.4375 37.527344 347.4375 34.511719 Z M 333.882812 23.128906 C 333.882812 23.285156 344.507812 27.269531 344.15625 27.617188 C 344.058594 29.058594 344.28125 30.523438 344.304688 31.972656 L 334.082031 27.699219 C 334.058594 26.015625 333.9375 24.621094 333.875 23.144531 Z M 222.8125 29.613281 C 227.242188 31.269531 227.542969 32.113281 227.019531 36.667969 C 225.953125 34.75 224.761719 32.910156 223.445312 31.15625 C 222.925781 30.488281 222.351562 29.816406 221.804688 29.1875 Z M 159.273438 39.632812 C 158.984375 41.78125 154.101562 38.417969 153.179688 38.355469 C 153.109375 36.804688 153.035156 35.253906 152.941406 33.664062 L 161.246094 37.152344 C 160.5625 37.957031 159.90625 38.785156 159.273438 39.632812 Z M 155.851562 44.71875 C 155.378906 46.210938 154.453125 45.378906 153.449219 44.988281 C 153.386719 43.4375 153.332031 41.886719 153.261719 40.332031 L 157.511719 42.113281 C 156.9375 42.960938 156.378906 43.832031 155.851562 44.71875 Z M 153.59375 48.78125 C 153.59375 48.164062 153.546875 47.566406 153.527344 46.953125 C 154.871094 47.199219 153.941406 47.941406 153.59375 48.78125 Z M 162.632812 31.417969 C 162.53125 32.792969 163.464844 34.652344 162.472656 35.726562 L 152.828125 31.691406 C 152.730469 30.109375 152.617188 28.527344 152.480469 26.957031 C 152.511719 27.179688 162.957031 30.972656 162.632812 31.417969 Z M 161.914062 24.46875 C 162.507812 25.964844 162.429688 27.652344 162.539062 29.246094 L 152.332031 24.960938 C 152.269531 23.445312 152.253906 21.859375 152.066406 20.339844 Z M 130.210938 38.4375 C 130.210938 39.839844 130.234375 41.105469 130.210938 42.449219 L 122.085938 39.011719 L 122.085938 34.425781 C 122.285156 34.722656 131.03125 37.597656 130.210938 38.414062 Z M 130.210938 26.023438 C 130.019531 27.089844 129.910156 28.167969 129.882812 29.25 L 122.222656 26.03125 C 122.285156 25.238281 122.285156 24.441406 122.222656 23.648438 C 122.238281 23.300781 122.222656 22.957031 122.175781 22.613281 Z M 122.078125 29.683594 C 122.078125 29.136719 122.113281 28.511719 122.132812 27.925781 L 129.894531 31.175781 C 129.925781 32.726562 130.058594 34.316406 130.132812 35.863281 L 122.082031 32.496094 C 122.082031 31.558594 122.082031 30.621094 122.078125 29.683594 Z M 122.078125 44.808594 C 122.078125 43.519531 122.078125 42.230469 122.078125 40.949219 L 130.195312 44.347656 C 130.164062 45.851562 130.105469 47.414062 130.085938 48.890625 C 129.804688 48.511719 121.140625 45.835938 122.078125 44.808594 Z M 122.078125 48.042969 C 122.078125 47.84375 122.078125 47.652344 122.078125 47.457031 C 122.148438 47.78125 130.871094 50.46875 129.773438 51.269531 C 128.382812 55.035156 124.601562 53.308594 122.050781 52.035156 C 122.050781 50.707031 122.054688 49.371094 122.054688 48.042969 Z M 122.078125 53.960938 L 122.980469 54.34375 C 122.460938 54.351562 121.863281 54.675781 122.035156 53.960938 Z M 117.253906 115.375 C 113.824219 115.957031 109.886719 113.726562 106.980469 112.5625 C 113.445312 110.765625 115.113281 112.671875 120.8125 114.976562 C 119.589844 115.167969 118.394531 115.316406 117.253906 115.375 Z M 126.519531 113.886719 C 123.597656 115.316406 118.5 111.753906 115.707031 110.910156 C 118.195312 109.3125 124.667969 112.980469 126.941406 113.792969 Z M 126.519531 83.574219 C 130.300781 85.09375 129.8125 84.417969 129.78125 88.46875 L 119.742188 84.261719 C 119.871094 83.171875 120.132812 82.058594 120.308594 80.976562 Z M 123.933594 79.15625 C 125.851562 78.730469 127.808594 78.507812 129.757812 78.226562 L 129.757812 81.609375 Z M 129.785156 90.402344 C 129.832031 91.851562 129.652344 93.507812 129.640625 94.925781 L 119.371094 90.621094 C 119.371094 89.558594 119.371094 88.617188 119.449219 87.65625 C 119.449219 87.140625 119.496094 86.621094 119.546875 86.105469 Z M 130.230469 108.210938 L 120.101562 103.957031 C 119.964844 102.40625 119.824219 100.785156 119.71875 99.214844 L 129.136719 103.167969 C 129.007812 105.628906 129.878906 106.570312 130.230469 108.210938 Z M 119.367188 92.5625 L 129.464844 96.796875 C 129.316406 98.421875 129.195312 99.902344 129.136719 101.242188 L 119.589844 97.226562 C 119.5 95.679688 119.410156 94.117188 119.390625 92.5625 Z M 124.046875 109.257812 C 122.582031 108.464844 119.773438 108.316406 120.25 105.972656 L 130.386719 110.21875 C 130.425781 110.8125 130.480469 111.394531 130.53125 111.976562 Z M 149.679688 112.089844 C 147.027344 112.5625 142.519531 109.863281 140.234375 109.085938 C 142.097656 107.695312 148.851562 111.445312 150.582031 112.019531 Z M 162.324219 110.582031 C 152.65625 110.984375 155.636719 112.5625 146.015625 108.15625 C 147.726562 108.097656 149.84375 108.214844 151.5 107.601562 C 152.101562 107.382812 152.570312 107 152.90625 106.457031 L 162.648438 110.542969 Z M 155.042969 97.832031 C 154.527344 97.699219 154.164062 97.433594 154.3125 96.839844 C 154.574219 97.175781 154.820312 97.507812 155.070312 97.832031 Z M 164.402344 106.507812 C 164.34375 107.410156 164.222656 108.304688 164.035156 109.1875 L 153.605469 104.785156 C 154.007812 103.015625 154.226562 101.222656 154.265625 99.40625 C 158.355469 100.566406 160.832031 104.476562 164.429688 106.507812 Z M 186.09375 112.886719 C 186.460938 112.71875 188.273438 113.613281 188.621094 113.742188 C 187.789062 113.484375 186.949219 113.199219 186.121094 112.886719 Z M 206.789062 114.910156 C 201.542969 116.019531 195.523438 115.429688 190.828125 112.722656 C 201.234375 111.308594 196.835938 110.703125 206.925781 114.886719 C 206.886719 114.898438 206.847656 114.90625 206.804688 114.910156 Z M 214.90625 112.839844 C 213.320312 113.417969 211.703125 113.898438 210.054688 114.28125 L 201.257812 110.601562 C 202.226562 110.277344 203.117188 109.96875 204.078125 109.566406 C 204.925781 109.226562 205.707031 108.894531 206.429688 108.53125 C 206.765625 107.714844 215.886719 112.4375 216.257812 112.296875 C 215.847656 112.472656 215.390625 112.65625 214.921875 112.828125 Z M 222.121094 109.402344 C 220.976562 110.078125 219.746094 110.75 218.542969 111.316406 L 208.917969 107.28125 C 210.40625 106.464844 211.839844 105.554688 213.214844 104.558594 L 223.179688 108.734375 C 222.84375 108.925781 222.488281 109.171875 222.136719 109.386719 Z M 214.875 103.316406 C 216.101562 102.34375 217.273438 101.3125 218.390625 100.210938 C 223.460938 102.433594 223.6875 101.097656 223.722656 107.027344 Z M 224.128906 93.90625 C 224.128906 93.988281 224.128906 94.066406 224.128906 94.15625 L 223.609375 93.941406 C 223.796875 93.679688 223.964844 93.425781 224.128906 93.140625 C 224.148438 93.402344 224.144531 93.632812 224.136719 93.890625 Z M 223.992188 96.03125 C 223.867188 97.507812 223.734375 99.078125 223.660156 100.488281 L 219.722656 98.835938 C 220.730469 97.757812 221.671875 96.621094 222.550781 95.433594 Z M 242.980469 115.417969 C 241.71875 115.816406 235.140625 112.503906 233.925781 112.136719 C 235.324219 110.585938 243.019531 114.875 244.445312 115.242188 C 243.964844 115.328125 243.476562 115.378906 242.992188 115.402344 Z M 250.363281 113.539062 C 247.617188 115.800781 240.953125 111.601562 238.359375 110.75 C 244.125 107.863281 247.425781 110.835938 252.566406 112.820312 C 251.890625 113.023438 251.148438 113.265625 250.375 113.523438 Z M 262.03125 110.351562 C 254.527344 113.042969 253.484375 111.21875 246.703125 108.4375 C 248.773438 107.726562 251.289062 107.699219 253.042969 106.507812 L 262.144531 110.320312 C 262.109375 110.328125 262.074219 110.335938 262.039062 110.335938 Z M 254.027344 91.851562 C 253.089844 90.894531 253.507812 88.363281 253.167969 86.886719 C 253.332031 87.015625 263.109375 91.0625 263.300781 91.160156 C 263.429688 92.769531 263.582031 94.347656 263.773438 95.933594 Z M 264 97.972656 C 264.179688 99.550781 264.351562 101.230469 264.460938 102.808594 L 254.269531 98.535156 C 254.21875 96.910156 254.050781 95.144531 253.90625 93.742188 Z M 263.453125 84.8125 C 263.171875 86.253906 263.085938 87.710938 263.199219 89.175781 C 262.644531 89.175781 253.320312 84.433594 253.054688 85.507812 C 252.867188 83.761719 252.867188 82.011719 253.054688 80.261719 C 253.3125 80.71875 263.359375 84.398438 263.453125 84.820312 Z M 264.566406 105.839844 C 264.566406 106.984375 264.535156 108.183594 264.441406 109.320312 L 254 104.941406 C 254.332031 103.507812 254.257812 101.972656 254.304688 100.488281 C 254.777344 101.070312 265.835938 104.304688 264.566406 105.851562 Z M 268.617188 80.53125 C 267.09375 81.226562 265.332031 81.734375 264.257812 83.117188 C 264.257812 83.117188 254.082031 78.859375 254.078125 78.867188 C 255.8125 78.039062 257.636719 77.3125 259.390625 76.496094 L 268.84375 80.46875 Z M 271.078125 79.441406 L 261.617188 75.472656 C 263.371094 74.675781 265.117188 73.921875 266.867188 73.09375 L 276.355469 77.066406 C 274.589844 77.882812 272.828125 78.652344 271.078125 79.433594 Z M 282.160156 74.351562 C 281.015625 74.925781 279.71875 75.527344 278.5625 76.0625 L 269.050781 72.078125 C 270.699219 71.265625 272.355469 70.445312 273.945312 69.542969 C 274.261719 70.160156 284.589844 72.761719 282.160156 74.359375 Z M 282.859375 64.824219 L 281.613281 64.308594 C 282.070312 63.914062 282.523438 63.527344 282.96875 63.097656 C 282.925781 63.675781 282.890625 64.253906 282.859375 64.835938 Z M 282.753906 66.714844 C 282.675781 68.207031 282.609375 69.707031 282.542969 71.203125 L 275.867188 68.410156 C 277.3125 67.542969 278.703125 66.597656 280.039062 65.570312 Z M 303.816406 115.210938 C 298.78125 115.949219 296.195312 114.542969 291.949219 112.65625 C 299.011719 112.175781 301.582031 111.546875 308.226562 115.046875 C 306.59375 115.132812 305.148438 115.199219 303.816406 115.222656 Z M 320.601562 114.03125 C 313.875 115.066406 311.132812 114.886719 304.964844 111.746094 C 311.964844 110.746094 314.738281 110.613281 321.222656 113.96875 Z M 329.070312 95.679688 C 329.21875 94.292969 329.257812 92.898438 329.183594 91.503906 C 329.90625 91.898438 338.570312 95.195312 338.835938 95.785156 C 339.820312 96.980469 339.4375 98.671875 339.40625 100.109375 C 339.410156 100.015625 328.882812 95.878906 329.070312 95.679688 Z M 328.972656 97.671875 L 339.277344 101.992188 C 339.207031 103.535156 339.234375 105.074219 339.367188 106.613281 C 339.3125 106.421875 328.675781 102.503906 329.152344 102.035156 C 329.121094 100.648438 328.945312 99.046875 328.972656 97.671875 Z M 328.867188 107.96875 C 329.140625 106.757812 329.253906 105.53125 329.214844 104.289062 L 339.453125 108.582031 C 339.527344 109.878906 339.472656 111.167969 339.296875 112.453125 C 339.296875 112.738281 339.167969 112.910156 338.875 112.929688 C 338.847656 112.515625 327.257812 108.988281 328.867188 107.96875 Z M 326.53125 110.25 C 326.871094 109.355469 334.625 113.25 335.101562 113.285156 C 327.433594 113.15625 325.394531 114.566406 318.160156 110.765625 C 320.9375 110.746094 323.820312 110.921875 326.53125 110.25 Z M 318.117188 89.074219 C 322.066406 88.835938 327.046875 88.554688 326.132812 93.65625 C 325.503906 98.035156 326.566406 102.789062 325.925781 107.109375 L 325.925781 107.078125 C 325.925781 107.304688 325.597656 107.285156 325.4375 107.351562 C 324.875 107.46875 324.308594 107.546875 323.734375 107.585938 C 310.800781 107.429688 297.765625 110.007812 284.90625 109.695312 C 283.496094 91.335938 285.902344 71.109375 286.90625 52.429688 C 280.777344 65.828125 265.242188 70.089844 252.949219 75.972656 C 252.527344 76.152344 252.140625 76.382812 251.785156 76.664062 C 251.425781 76.949219 251.117188 77.277344 250.851562 77.648438 C 250.582031 78.015625 250.371094 78.417969 250.21875 78.84375 C 250.0625 79.273438 249.96875 79.714844 249.933594 80.171875 C 249.378906 88.058594 251.867188 95.886719 251.082031 103.824219 C 250.757812 104.746094 248.804688 104.5 247.847656 104.957031 C 241.34375 106.089844 235.101562 109.488281 228.519531 109.777344 C 224.117188 107.917969 228.566406 82.875 227.910156 76.898438 C 227.050781 80.207031 225.875 83.398438 224.378906 86.472656 C 216.941406 102.894531 197.996094 112.339844 180.332031 109.308594 C 166.304688 107.347656 154.054688 96.414062 151.257812 82.453125 C 151.257812 87.738281 151.324219 93.011719 151.21875 98.304688 C 150.992188 99.949219 151.390625 104.140625 149.9375 104.875 C 149.464844 104.949219 148.992188 105 148.515625 105.019531 C 143.339844 104.429688 137.570312 107.953125 132.722656 105.816406 C 131.527344 104.378906 132.527344 98.160156 132.683594 95.210938 C 133.023438 92.5625 132.734375 86.535156 132.796875 83.90625 C 133.3125 71.167969 132.339844 74.820312 119.230469 77.179688 C 117.113281 77.472656 117.460938 79.679688 117.097656 81.34375 C 115.589844 89.105469 116.472656 97.140625 117.097656 104.976562 C 117.0625 106.179688 117.941406 107.808594 116.164062 107.699219 C 110.871094 108.589844 104.640625 110.726562 99.4375 109.40625 C 95.167969 106.886719 97.683594 93.832031 97.882812 88.136719 C 98.277344 73.925781 98.867188 59.652344 100.410156 45.484375 C 102.359375 39.4375 99.375 22.628906 106.90625 21.546875 C 110.191406 21.238281 113.363281 21.335938 116.632812 20.875 C 117.441406 20.929688 118.234375 20.722656 118.542969 21.214844 C 119.167969 22.121094 119.152344 23.285156 119.191406 24.378906 C 118.894531 31.570312 119.070312 38.976562 119.003906 46.179688 C 119.796875 56.269531 115.316406 59.382812 127.25 56.738281 C 138.683594 53.632812 130.644531 34.035156 133.457031 25.457031 C 134.117188 21.710938 137.539062 21.726562 140.835938 20.859375 C 142.90625 20.265625 146.054688 19.03125 148.121094 18.910156 C 149.0625 18.71875 148.820312 19.945312 149.027344 20.53125 C 150.160156 35.628906 150.71875 50.800781 151.054688 65.941406 C 154.484375 32.542969 203.960938 1.640625 224.304688 38.179688 C 226.839844 43.070312 228.484375 48.242188 229.238281 53.703125 C 229.757812 44.90625 230.214844 35.882812 230.113281 27.160156 C 231.027344 26.199219 236.457031 24.996094 238.273438 24.59375 C 256.003906 19.339844 284.28125 16.316406 288.695312 39.144531 C 292.265625 23.144531 287.140625 21.6875 300.84375 22.21875 C 306.285156 21.851562 312.007812 21.644531 317.277344 21.277344 C 320.253906 21.335938 331.335938 19.207031 330.824219 23.683594 C 330.824219 26.269531 332.085938 38.90625 329.003906 39.203125 C 324.21875 40.554688 319.023438 40.308594 314.109375 40.808594 C 311.957031 41.378906 307.574219 40.058594 306.585938 42.320312 C 306.523438 45.84375 304.472656 53.734375 306.769531 56.375 C 316.601562 59.996094 322.660156 51.71875 318.566406 68.367188 C 315.917969 74.640625 306.667969 71.917969 302.527344 76.410156 C 301.28125 78.386719 301.808594 81.273438 301.664062 83.570312 C 300.722656 92.285156 312.828125 88.9375 318.117188 89.074219 Z M 309.042969 48.441406 C 309.152344 47.191406 309.28125 46.066406 309.40625 44.917969 L 319.753906 49.269531 C 319.632812 50.425781 319.5 51.617188 319.382812 52.785156 Z M 319.230469 54.648438 C 316.828125 54.160156 314.054688 54.339844 311.648438 54.207031 C 308.121094 54.679688 308.757812 53.117188 308.886719 50.3125 Z M 304.742188 83.824219 C 304.71875 82.953125 304.742188 82.0625 304.742188 81.183594 C 304.933594 81.550781 316.066406 85.230469 315.011719 86.203125 C 312.121094 86 304.21875 88.128906 304.75 83.824219 Z M 317.84375 80.496094 C 316.558594 81.066406 315.332031 82.15625 315.226562 83.632812 L 304.851562 79.285156 C 304.898438 78.710938 304.851562 78.105469 305.46875 77.863281 C 306.683594 77.210938 308.101562 77.0625 309.40625 76.609375 L 318.25 80.320312 C 318.121094 80.371094 317.984375 80.4375 317.847656 80.496094 Z M 327.460938 77.765625 C 319.183594 80.621094 319.796875 78.722656 312.25 75.871094 C 314.222656 75.382812 316.304688 74.867188 318.074219 73.730469 L 327.601562 77.722656 Z M 332.117188 73.292969 C 331.777344 74.726562 331.007812 75.863281 329.800781 76.703125 L 319.621094 72.441406 C 320.605469 71.363281 321.296875 70.121094 321.691406 68.714844 C 321.660156 68.835938 332.585938 73 332.113281 73.292969 Z M 322.832031 59.453125 L 331.996094 63.296875 C 332.632812 63.703125 332.976562 64.28125 333.03125 65.03125 L 322.886719 60.773438 C 322.890625 60.332031 322.871094 59.894531 322.832031 59.453125 Z M 322.3125 65.664062 C 322.484375 64.628906 322.65625 63.636719 322.769531 62.648438 L 333.117188 66.988281 C 332.992188 68.441406 332.792969 69.886719 332.515625 71.324219 L 322.085938 66.957031 Z M 325.628906 46.519531 C 322.710938 47.5 317.351562 45.046875 314.789062 43.851562 C 320.210938 42.863281 322.660156 44.3125 327.425781 46.40625 C 326.820312 46.453125 326.222656 46.488281 325.632812 46.519531 Z M 340.253906 45.289062 C 337.511719 45.699219 334.75 45.960938 331.976562 46.074219 C 331.847656 46.464844 324.578125 43.234375 324.304688 43.148438 C 335.75 41.65625 327.410156 40.15625 340.3125 45.277344 Z M 344.113281 41.191406 C 343.867188 42.273438 344.027344 43.816406 343.054688 44.488281 L 332.75 40.160156 C 333.441406 38.929688 333.628906 37.445312 333.835938 36.023438 C 334.082031 36.492188 345.402344 40.015625 344.113281 41.210938 Z M 344.375 35.449219 C 344.375 36.433594 344.375 37.492188 344.3125 38.492188 L 333.964844 34.160156 C 334.066406 32.71875 334.097656 31.054688 334.09375 29.628906 L 344.332031 33.941406 C 344.367188 34.425781 344.367188 34.984375 344.375 35.460938 Z M 344.375 35.449219 " fill-opacity="1" fill-rule="nonzero"/><path fill="#ffffff" d="M 202.125 44.734375 C 200.351562 43.371094 198.363281 42.507812 196.152344 42.148438 C 192.417969 41.5625 188.652344 42.722656 185.488281 44.699219 C 176.964844 50.148438 171.640625 60.847656 173.074219 70.945312 C 173.261719 72.183594 173.605469 73.378906 174.105469 74.527344 C 174.605469 75.675781 175.246094 76.742188 176.023438 77.726562 C 176.804688 78.707031 177.695312 79.574219 178.699219 80.324219 C 179.703125 81.070312 180.789062 81.679688 181.953125 82.144531 C 202.4375 90.59375 217.578125 57.746094 202.125 44.734375 Z M 190.390625 45.769531 C 191.386719 45.398438 192.417969 45.183594 193.480469 45.125 C 194.546875 45.070312 195.59375 45.175781 196.625 45.441406 C 197.65625 45.707031 198.625 46.125 199.527344 46.6875 C 200.433594 47.253906 201.230469 47.941406 201.921875 48.75 C 201.0625 49.089844 200.226562 49.488281 199.421875 49.945312 L 189.855469 45.9375 Z M 183.949219 49.773438 C 185.097656 48.683594 186.363281 47.75 187.742188 46.96875 L 197.628906 51.109375 C 196.34375 52.035156 195.160156 53.070312 194.066406 54.214844 L 183.804688 49.910156 Z M 180.011719 54.472656 C 180.738281 53.339844 181.554688 52.273438 182.457031 51.273438 L 192.804688 55.617188 C 191.871094 56.726562 191.035156 57.902344 190.292969 59.148438 C 190.382812 58.941406 178.902344 54.917969 179.984375 54.472656 Z M 176.011719 65.527344 C 176.148438 64.304688 176.382812 63.097656 176.707031 61.90625 L 187.175781 66.300781 C 186.78125 67.683594 186.496094 69.089844 186.316406 70.519531 C 186.121094 70.175781 174.925781 66.433594 175.984375 65.527344 Z M 176.839844 73.066406 C 176.222656 71.464844 175.914062 69.804688 175.902344 68.089844 C 176.136719 68.460938 187.144531 72.121094 186.148438 73.082031 C 186.136719 74.445312 186.265625 75.792969 186.53125 77.128906 Z M 187.480469 80.308594 C 183.933594 80.101562 180.363281 78.484375 178.226562 75.582031 C 178.832031 76.0625 188.054688 79.015625 187.539062 80.316406 Z M 188.800781 61.957031 C 188.398438 62.816406 188.042969 63.695312 187.730469 64.59375 L 177.222656 60.195312 C 177.679688 58.855469 178.242188 57.5625 178.914062 56.3125 L 189.402344 60.710938 C 189.171875 61.121094 188.96875 61.535156 188.777344 61.957031 Z M 201.09375 73.378906 C 199.128906 76.203125 193.332031 81.542969 190.414062 79.242188 C 189.964844 78.25 189.644531 77.214844 189.453125 76.140625 C 188.417969 69.242188 191.207031 62.050781 195.75 56.910156 C 197.820312 54.542969 200.300781 52.75 203.199219 51.527344 C 207.550781 56.277344 204.597656 68.199219 201.066406 73.378906 Z M 201.09375 73.378906 " fill-opacity="1" fill-rule="nonzero"/><path fill="#ffffff" d="M 266.582031 47.460938 C 265.609375 38.816406 255.136719 40.839844 249.183594 42.289062 C 248.8125 42.359375 248.503906 42.539062 248.265625 42.832031 C 248.027344 43.125 247.910156 43.460938 247.914062 43.839844 C 251.269531 61.191406 245.632812 63.078125 264.359375 52.386719 C 265.082031 51.777344 265.640625 51.042969 266.03125 50.179688 C 266.421875 49.316406 266.605469 48.410156 266.582031 47.460938 Z M 253.894531 54.601562 C 253.378906 54.828125 252.902344 55.050781 252.40625 55.265625 C 252.371094 54.300781 252.324219 53.308594 252.289062 52.339844 L 255.691406 53.769531 C 255.101562 54.085938 254.5 54.347656 253.894531 54.601562 Z M 261.035156 51.105469 C 257.886719 53.929688 255.273438 51.535156 252.140625 50.375 C 252.054688 49.046875 251.898438 47.730469 251.667969 46.421875 L 261.496094 50.5625 C 261.683594 50.839844 261.253906 50.933594 261.035156 51.105469 Z M 263.5 47.699219 C 263.5 48.21875 254.859375 44.390625 254.667969 44.347656 C 257.859375 43.738281 263.105469 43.402344 263.519531 47.699219 Z M 263.5 47.699219 " fill-opacity="1" fill-rule="nonzero"/></svg>